<svg width="637" height="637" fill="none" xmlns="http://www.w3.org/2000/svg"><path d="M318.5 108.322c-119.009 0-215.5 96.491-215.5 215.5 0 95.216 61.747 175.962 147.376 204.461 10.775 1.979 14.689-4.662 14.689-10.379 0-5.146-.176-22.122-.308-40.11-59.944 13.018-72.61-25.42-72.61-25.42-9.808-24.892-23.925-31.533-23.925-31.533-19.571-13.37 1.495-13.106 1.495-13.106 21.638 1.495 33.029 22.21 33.029 22.21 19.219 32.94 50.444 23.397 62.715 17.899 1.979-13.897 7.52-23.397 13.677-28.762-47.85-5.454-98.162-23.925-98.162-106.519 0-23.529 8.4-42.748 22.166-57.833-2.199-5.454-9.632-27.399 2.111-57.042 0 0 18.075-5.805 59.284 22.078 17.196-4.794 35.624-7.169 53.919-7.257 18.296.088 36.767 2.463 53.963 7.257 41.121-27.927 59.197-22.078 59.197-22.078 11.786 29.687 4.353 51.588 2.154 57.042 13.81 15.085 22.166 34.304 22.166 57.833 0 82.77-50.4 101.021-98.426 106.343 7.74 6.685 14.645 19.79 14.645 39.889 0 28.807-.308 52.028-.308 59.153 0 5.717 3.914 12.446 14.821 10.335C472.297 499.74 534 418.994 534 323.822c0-119.009-96.491-215.5-215.5-215.5z" fill="#000"/></svg>
